<mxfile host="app.diagrams.net" agent="Mozilla/5.0 (Windows NT 10.0; Win64; x64) AppleWebKit/537.36 (KHTML, like Gecko) Chrome/126.0.0.0 Safari/537.36" version="24.7.7">
  <diagram name="Page-1" id="2YBvvXClWsGukQMizWep">
    <mxGraphModel dx="2559" dy="927" grid="1" gridSize="10" guides="1" tooltips="1" connect="1" arrows="1" fold="1" page="1" pageScale="1" pageWidth="850" pageHeight="1100" math="0" shadow="0">
      <root>
        <mxCell id="0" />
        <mxCell id="1" parent="0" />
        <mxCell id="aM9ryv3xv72pqoxQDRHE-1" value="SE-SDK" style="shape=umlLifeline;perimeter=lifelinePerimeter;whiteSpace=wrap;html=1;container=0;dropTarget=0;collapsible=0;recursiveResize=0;outlineConnect=0;portConstraint=eastwest;newEdgeStyle={&quot;edgeStyle&quot;:&quot;elbowEdgeStyle&quot;,&quot;elbow&quot;:&quot;vertical&quot;,&quot;curved&quot;:0,&quot;rounded&quot;:0};" parent="1" vertex="1">
          <mxGeometry x="-350" y="40" width="100" height="750" as="geometry" />
        </mxCell>
        <mxCell id="aM9ryv3xv72pqoxQDRHE-2" value="" style="html=1;points=[];perimeter=orthogonalPerimeter;outlineConnect=0;targetShapes=umlLifeline;portConstraint=eastwest;newEdgeStyle={&quot;edgeStyle&quot;:&quot;elbowEdgeStyle&quot;,&quot;elbow&quot;:&quot;vertical&quot;,&quot;curved&quot;:0,&quot;rounded&quot;:0};" parent="aM9ryv3xv72pqoxQDRHE-1" vertex="1">
          <mxGeometry x="45" y="80" width="10" height="90" as="geometry" />
        </mxCell>
        <mxCell id="fJ_9bbSh1yOLhhSjH3SS-34" value="" style="html=1;points=[];perimeter=orthogonalPerimeter;outlineConnect=0;targetShapes=umlLifeline;portConstraint=eastwest;newEdgeStyle={&quot;edgeStyle&quot;:&quot;elbowEdgeStyle&quot;,&quot;elbow&quot;:&quot;vertical&quot;,&quot;curved&quot;:0,&quot;rounded&quot;:0};" vertex="1" parent="aM9ryv3xv72pqoxQDRHE-1">
          <mxGeometry x="45" y="451" width="10" height="99" as="geometry" />
        </mxCell>
        <mxCell id="aM9ryv3xv72pqoxQDRHE-5" value="APP" style="shape=umlLifeline;perimeter=lifelinePerimeter;whiteSpace=wrap;html=1;container=0;dropTarget=0;collapsible=0;recursiveResize=0;outlineConnect=0;portConstraint=eastwest;newEdgeStyle={&quot;edgeStyle&quot;:&quot;elbowEdgeStyle&quot;,&quot;elbow&quot;:&quot;vertical&quot;,&quot;curved&quot;:0,&quot;rounded&quot;:0};" parent="1" vertex="1">
          <mxGeometry x="-160" y="40" width="100" height="790" as="geometry" />
        </mxCell>
        <mxCell id="aM9ryv3xv72pqoxQDRHE-6" value="" style="html=1;points=[];perimeter=orthogonalPerimeter;outlineConnect=0;targetShapes=umlLifeline;portConstraint=eastwest;newEdgeStyle={&quot;edgeStyle&quot;:&quot;elbowEdgeStyle&quot;,&quot;elbow&quot;:&quot;vertical&quot;,&quot;curved&quot;:0,&quot;rounded&quot;:0};" parent="aM9ryv3xv72pqoxQDRHE-5" vertex="1">
          <mxGeometry x="45" y="60" width="10" height="290" as="geometry" />
        </mxCell>
        <mxCell id="fJ_9bbSh1yOLhhSjH3SS-31" value="" style="html=1;points=[];perimeter=orthogonalPerimeter;outlineConnect=0;targetShapes=umlLifeline;portConstraint=eastwest;newEdgeStyle={&quot;edgeStyle&quot;:&quot;elbowEdgeStyle&quot;,&quot;elbow&quot;:&quot;vertical&quot;,&quot;curved&quot;:0,&quot;rounded&quot;:0};" vertex="1" parent="aM9ryv3xv72pqoxQDRHE-5">
          <mxGeometry x="45" y="410" width="10" height="290" as="geometry" />
        </mxCell>
        <mxCell id="aM9ryv3xv72pqoxQDRHE-7" value="请求分享" style="html=1;verticalAlign=bottom;endArrow=block;edgeStyle=elbowEdgeStyle;elbow=vertical;curved=0;rounded=0;" parent="1" edge="1">
          <mxGeometry relative="1" as="geometry">
            <mxPoint x="-117" y="134" as="sourcePoint" />
            <Array as="points" />
            <mxPoint x="-292" y="134" as="targetPoint" />
          </mxGeometry>
        </mxCell>
        <mxCell id="aM9ryv3xv72pqoxQDRHE-8" value="返回pingcode url" style="html=1;verticalAlign=bottom;endArrow=open;dashed=1;endSize=8;edgeStyle=elbowEdgeStyle;elbow=vertical;curved=0;rounded=0;" parent="1" edge="1">
          <mxGeometry relative="1" as="geometry">
            <mxPoint x="-105" y="290" as="targetPoint" />
            <Array as="points" />
            <mxPoint x="120" y="290" as="sourcePoint" />
          </mxGeometry>
        </mxCell>
        <mxCell id="aM9ryv3xv72pqoxQDRHE-10" value="返回签名数据" style="html=1;verticalAlign=bottom;endArrow=open;dashed=1;endSize=8;edgeStyle=elbowEdgeStyle;elbow=vertical;curved=0;rounded=0;" parent="1" edge="1">
          <mxGeometry relative="1" as="geometry">
            <mxPoint x="-115" y="195" as="targetPoint" />
            <Array as="points">
              <mxPoint x="-200" y="195" />
            </Array>
            <mxPoint x="-290" y="195" as="sourcePoint" />
          </mxGeometry>
        </mxCell>
        <mxCell id="fJ_9bbSh1yOLhhSjH3SS-1" value="DeviceOEM-Server" style="shape=umlLifeline;perimeter=lifelinePerimeter;whiteSpace=wrap;html=1;container=0;dropTarget=0;collapsible=0;recursiveResize=0;outlineConnect=0;portConstraint=eastwest;newEdgeStyle={&quot;edgeStyle&quot;:&quot;elbowEdgeStyle&quot;,&quot;elbow&quot;:&quot;vertical&quot;,&quot;curved&quot;:0,&quot;rounded&quot;:0};" vertex="1" parent="1">
          <mxGeometry x="60" y="40" width="140" height="800" as="geometry" />
        </mxCell>
        <mxCell id="fJ_9bbSh1yOLhhSjH3SS-2" value="" style="html=1;points=[];perimeter=orthogonalPerimeter;outlineConnect=0;targetShapes=umlLifeline;portConstraint=eastwest;newEdgeStyle={&quot;edgeStyle&quot;:&quot;elbowEdgeStyle&quot;,&quot;elbow&quot;:&quot;vertical&quot;,&quot;curved&quot;:0,&quot;rounded&quot;:0};" vertex="1" parent="fJ_9bbSh1yOLhhSjH3SS-1">
          <mxGeometry x="65" y="140" width="10" height="125" as="geometry" />
        </mxCell>
        <mxCell id="fJ_9bbSh1yOLhhSjH3SS-39" value="" style="html=1;points=[];perimeter=orthogonalPerimeter;outlineConnect=0;targetShapes=umlLifeline;portConstraint=eastwest;newEdgeStyle={&quot;edgeStyle&quot;:&quot;elbowEdgeStyle&quot;,&quot;elbow&quot;:&quot;vertical&quot;,&quot;curved&quot;:0,&quot;rounded&quot;:0};" vertex="1" parent="fJ_9bbSh1yOLhhSjH3SS-1">
          <mxGeometry x="65" y="540" width="10" height="125" as="geometry" />
        </mxCell>
        <mxCell id="fJ_9bbSh1yOLhhSjH3SS-42" value="" style="endArrow=classic;html=1;rounded=0;" edge="1" parent="fJ_9bbSh1yOLhhSjH3SS-1">
          <mxGeometry width="50" height="50" relative="1" as="geometry">
            <mxPoint x="80" y="606" as="sourcePoint" />
            <mxPoint x="290" y="606" as="targetPoint" />
          </mxGeometry>
        </mxCell>
        <mxCell id="fJ_9bbSh1yOLhhSjH3SS-43" value="请求钥匙下载" style="edgeLabel;html=1;align=center;verticalAlign=middle;resizable=0;points=[];" vertex="1" connectable="0" parent="fJ_9bbSh1yOLhhSjH3SS-42">
          <mxGeometry x="-0.1703" y="2" relative="1" as="geometry">
            <mxPoint as="offset" />
          </mxGeometry>
        </mxCell>
        <mxCell id="fJ_9bbSh1yOLhhSjH3SS-44" value="返回钥匙" style="html=1;verticalAlign=bottom;endArrow=open;dashed=1;endSize=8;edgeStyle=elbowEdgeStyle;elbow=vertical;curved=0;rounded=0;" edge="1" parent="fJ_9bbSh1yOLhhSjH3SS-1" target="fJ_9bbSh1yOLhhSjH3SS-39">
          <mxGeometry relative="1" as="geometry">
            <mxPoint x="80" y="642" as="targetPoint" />
            <Array as="points" />
            <mxPoint x="290" y="644" as="sourcePoint" />
          </mxGeometry>
        </mxCell>
        <mxCell id="fJ_9bbSh1yOLhhSjH3SS-45" value="验证请求设备合法性" style="html=1;align=left;spacingLeft=2;endArrow=block;rounded=0;edgeStyle=orthogonalEdgeStyle;curved=0;rounded=0;fontFamily=Helvetica;fontSize=12;fontColor=default;" edge="1" parent="fJ_9bbSh1yOLhhSjH3SS-1">
          <mxGeometry relative="1" as="geometry">
            <mxPoint x="75" y="561" as="sourcePoint" />
            <Array as="points">
              <mxPoint x="105" y="561" />
              <mxPoint x="105" y="591" />
            </Array>
            <mxPoint x="75" y="591" as="targetPoint" />
          </mxGeometry>
        </mxCell>
        <mxCell id="fJ_9bbSh1yOLhhSjH3SS-3" value="VehicleOEM-Server" style="shape=umlLifeline;perimeter=lifelinePerimeter;whiteSpace=wrap;html=1;container=0;dropTarget=0;collapsible=0;recursiveResize=0;outlineConnect=0;portConstraint=eastwest;newEdgeStyle={&quot;edgeStyle&quot;:&quot;elbowEdgeStyle&quot;,&quot;elbow&quot;:&quot;vertical&quot;,&quot;curved&quot;:0,&quot;rounded&quot;:0};" vertex="1" parent="1">
          <mxGeometry x="290" y="40" width="140" height="780" as="geometry" />
        </mxCell>
        <mxCell id="fJ_9bbSh1yOLhhSjH3SS-4" value="" style="html=1;points=[];perimeter=orthogonalPerimeter;outlineConnect=0;targetShapes=umlLifeline;portConstraint=eastwest;newEdgeStyle={&quot;edgeStyle&quot;:&quot;elbowEdgeStyle&quot;,&quot;elbow&quot;:&quot;vertical&quot;,&quot;curved&quot;:0,&quot;rounded&quot;:0};" vertex="1" parent="fJ_9bbSh1yOLhhSjH3SS-3">
          <mxGeometry x="65" y="200" width="10" height="52" as="geometry" />
        </mxCell>
        <mxCell id="fJ_9bbSh1yOLhhSjH3SS-25" value="创建 分享链接" style="html=1;align=left;spacingLeft=2;endArrow=block;rounded=0;edgeStyle=orthogonalEdgeStyle;curved=0;rounded=0;fontFamily=Helvetica;fontSize=12;fontColor=default;" edge="1" parent="fJ_9bbSh1yOLhhSjH3SS-3">
          <mxGeometry relative="1" as="geometry">
            <mxPoint x="75" y="209" as="sourcePoint" />
            <Array as="points">
              <mxPoint x="110" y="209" />
              <mxPoint x="110" y="239" />
            </Array>
            <mxPoint x="75" y="239" as="targetPoint" />
          </mxGeometry>
        </mxCell>
        <mxCell id="fJ_9bbSh1yOLhhSjH3SS-40" value="" style="html=1;points=[];perimeter=orthogonalPerimeter;outlineConnect=0;targetShapes=umlLifeline;portConstraint=eastwest;newEdgeStyle={&quot;edgeStyle&quot;:&quot;elbowEdgeStyle&quot;,&quot;elbow&quot;:&quot;vertical&quot;,&quot;curved&quot;:0,&quot;rounded&quot;:0};" vertex="1" parent="fJ_9bbSh1yOLhhSjH3SS-3">
          <mxGeometry x="65" y="600" width="10" height="52" as="geometry" />
        </mxCell>
        <mxCell id="fJ_9bbSh1yOLhhSjH3SS-41" value="生成钥匙" style="html=1;align=left;spacingLeft=2;endArrow=block;rounded=0;edgeStyle=orthogonalEdgeStyle;curved=0;rounded=0;fontFamily=Helvetica;fontSize=12;fontColor=default;" edge="1" parent="fJ_9bbSh1yOLhhSjH3SS-3">
          <mxGeometry relative="1" as="geometry">
            <mxPoint x="75" y="609" as="sourcePoint" />
            <Array as="points">
              <mxPoint x="110" y="609" />
              <mxPoint x="110" y="639" />
            </Array>
            <mxPoint x="75" y="639" as="targetPoint" />
          </mxGeometry>
        </mxCell>
        <mxCell id="fJ_9bbSh1yOLhhSjH3SS-5" value="Vehicle" style="shape=umlLifeline;perimeter=lifelinePerimeter;whiteSpace=wrap;html=1;container=0;dropTarget=0;collapsible=0;recursiveResize=0;outlineConnect=0;portConstraint=eastwest;newEdgeStyle={&quot;edgeStyle&quot;:&quot;elbowEdgeStyle&quot;,&quot;elbow&quot;:&quot;vertical&quot;,&quot;curved&quot;:0,&quot;rounded&quot;:0};" vertex="1" parent="1">
          <mxGeometry x="530" y="40" width="140" height="840" as="geometry" />
        </mxCell>
        <mxCell id="fJ_9bbSh1yOLhhSjH3SS-6" value="" style="html=1;points=[];perimeter=orthogonalPerimeter;outlineConnect=0;targetShapes=umlLifeline;portConstraint=eastwest;newEdgeStyle={&quot;edgeStyle&quot;:&quot;elbowEdgeStyle&quot;,&quot;elbow&quot;:&quot;vertical&quot;,&quot;curved&quot;:0,&quot;rounded&quot;:0};" vertex="1" parent="fJ_9bbSh1yOLhhSjH3SS-5">
          <mxGeometry x="65" y="600" width="10" height="170" as="geometry" />
        </mxCell>
        <mxCell id="fJ_9bbSh1yOLhhSjH3SS-7" value="" style="endArrow=classic;html=1;rounded=0;" edge="1" parent="1">
          <mxGeometry width="50" height="50" relative="1" as="geometry">
            <mxPoint x="-105" y="199" as="sourcePoint" />
            <mxPoint x="120" y="199" as="targetPoint" />
          </mxGeometry>
        </mxCell>
        <mxCell id="fJ_9bbSh1yOLhhSjH3SS-8" value="请求分享" style="edgeLabel;html=1;align=center;verticalAlign=middle;resizable=0;points=[];" vertex="1" connectable="0" parent="fJ_9bbSh1yOLhhSjH3SS-7">
          <mxGeometry x="-0.1703" y="2" relative="1" as="geometry">
            <mxPoint as="offset" />
          </mxGeometry>
        </mxCell>
        <mxCell id="fJ_9bbSh1yOLhhSjH3SS-9" value="" style="endArrow=classic;html=1;rounded=0;" edge="1" parent="1">
          <mxGeometry width="50" height="50" relative="1" as="geometry">
            <mxPoint x="140" y="246" as="sourcePoint" />
            <mxPoint x="350" y="246" as="targetPoint" />
          </mxGeometry>
        </mxCell>
        <mxCell id="fJ_9bbSh1yOLhhSjH3SS-10" value="请求分享" style="edgeLabel;html=1;align=center;verticalAlign=middle;resizable=0;points=[];" vertex="1" connectable="0" parent="fJ_9bbSh1yOLhhSjH3SS-9">
          <mxGeometry x="-0.1703" y="2" relative="1" as="geometry">
            <mxPoint as="offset" />
          </mxGeometry>
        </mxCell>
        <mxCell id="fJ_9bbSh1yOLhhSjH3SS-11" value="返回pingcode url" style="html=1;verticalAlign=bottom;endArrow=open;dashed=1;endSize=8;edgeStyle=elbowEdgeStyle;elbow=vertical;curved=0;rounded=0;" edge="1" parent="1" target="fJ_9bbSh1yOLhhSjH3SS-2">
          <mxGeometry relative="1" as="geometry">
            <mxPoint x="140" y="282" as="targetPoint" />
            <Array as="points" />
            <mxPoint x="350" y="284" as="sourcePoint" />
          </mxGeometry>
        </mxCell>
        <mxCell id="fJ_9bbSh1yOLhhSjH3SS-26" value="验证请求设备合法性" style="html=1;align=left;spacingLeft=2;endArrow=block;rounded=0;edgeStyle=orthogonalEdgeStyle;curved=0;rounded=0;fontFamily=Helvetica;fontSize=12;fontColor=default;" edge="1" parent="1">
          <mxGeometry relative="1" as="geometry">
            <mxPoint x="135" y="201" as="sourcePoint" />
            <Array as="points">
              <mxPoint x="165" y="201" />
              <mxPoint x="165" y="231" />
            </Array>
            <mxPoint x="135" y="231" as="targetPoint" />
          </mxGeometry>
        </mxCell>
        <mxCell id="fJ_9bbSh1yOLhhSjH3SS-27" value="保存分享ping code url" style="html=1;align=left;spacingLeft=2;endArrow=block;rounded=0;edgeStyle=orthogonalEdgeStyle;curved=0;rounded=0;fontFamily=Helvetica;fontSize=12;fontColor=default;" edge="1" parent="1">
          <mxGeometry relative="1" as="geometry">
            <mxPoint x="-100" y="340" as="sourcePoint" />
            <Array as="points">
              <mxPoint x="-70" y="340" />
              <mxPoint x="-70" y="370" />
            </Array>
            <mxPoint x="-100" y="370" as="targetPoint" />
          </mxGeometry>
        </mxCell>
        <mxCell id="fJ_9bbSh1yOLhhSjH3SS-28" value="分享流程" style="shape=umlFrame;whiteSpace=wrap;html=1;pointerEvents=0;sketch=0;strokeColor=default;align=center;verticalAlign=middle;fontFamily=Helvetica;fontSize=12;fontColor=default;fillColor=default;" vertex="1" parent="1">
          <mxGeometry x="-440" y="90" width="1230" height="320" as="geometry" />
        </mxCell>
        <mxCell id="fJ_9bbSh1yOLhhSjH3SS-29" value="对分享请求签名" style="html=1;align=left;spacingLeft=2;endArrow=block;rounded=0;edgeStyle=orthogonalEdgeStyle;curved=0;rounded=0;fontFamily=Helvetica;fontSize=12;fontColor=default;" edge="1" parent="1">
          <mxGeometry relative="1" as="geometry">
            <mxPoint x="-290" y="150" as="sourcePoint" />
            <Array as="points">
              <mxPoint x="-260" y="150" />
              <mxPoint x="-260" y="180" />
            </Array>
            <mxPoint x="-290" y="180" as="targetPoint" />
          </mxGeometry>
        </mxCell>
        <mxCell id="fJ_9bbSh1yOLhhSjH3SS-30" value="查看分享链接等业务信息&lt;div&gt;（分享人、过期时间、车辆信息等）&lt;/div&gt;" style="html=1;align=left;spacingLeft=2;endArrow=block;rounded=0;edgeStyle=orthogonalEdgeStyle;curved=0;rounded=0;fontFamily=Helvetica;fontSize=12;fontColor=default;" edge="1" parent="1">
          <mxGeometry relative="1" as="geometry">
            <mxPoint x="-102" y="466" as="sourcePoint" />
            <Array as="points">
              <mxPoint x="-72" y="466" />
              <mxPoint x="-72" y="496" />
            </Array>
            <mxPoint x="-102" y="496" as="targetPoint" />
          </mxGeometry>
        </mxCell>
        <mxCell id="fJ_9bbSh1yOLhhSjH3SS-32" value="" style="endArrow=classic;html=1;rounded=0;" edge="1" parent="1">
          <mxGeometry width="50" height="50" relative="1" as="geometry">
            <mxPoint x="-115" y="507" as="sourcePoint" />
            <mxPoint x="-297.5" y="507" as="targetPoint" />
          </mxGeometry>
        </mxCell>
        <mxCell id="fJ_9bbSh1yOLhhSjH3SS-33" value="分享人请求下载" style="edgeLabel;html=1;align=center;verticalAlign=middle;resizable=0;points=[];" vertex="1" connectable="0" parent="fJ_9bbSh1yOLhhSjH3SS-32">
          <mxGeometry x="-0.1703" y="2" relative="1" as="geometry">
            <mxPoint x="-11" y="-3" as="offset" />
          </mxGeometry>
        </mxCell>
        <mxCell id="fJ_9bbSh1yOLhhSjH3SS-35" value="请求下载钥匙签名" style="html=1;align=left;spacingLeft=2;endArrow=block;rounded=0;edgeStyle=orthogonalEdgeStyle;curved=0;rounded=0;fontFamily=Helvetica;fontSize=12;fontColor=default;" edge="1" parent="1">
          <mxGeometry relative="1" as="geometry">
            <mxPoint x="-295" y="526" as="sourcePoint" />
            <Array as="points">
              <mxPoint x="-265" y="526" />
              <mxPoint x="-265" y="556" />
            </Array>
            <mxPoint x="-295" y="556" as="targetPoint" />
          </mxGeometry>
        </mxCell>
        <mxCell id="fJ_9bbSh1yOLhhSjH3SS-36" value="返回签名数据" style="html=1;verticalAlign=bottom;endArrow=open;dashed=1;endSize=8;edgeStyle=elbowEdgeStyle;elbow=vertical;curved=0;rounded=0;" edge="1" parent="1">
          <mxGeometry relative="1" as="geometry">
            <mxPoint x="-115" y="581" as="targetPoint" />
            <Array as="points">
              <mxPoint x="-200" y="581" />
            </Array>
            <mxPoint x="-290" y="581" as="sourcePoint" />
          </mxGeometry>
        </mxCell>
        <mxCell id="fJ_9bbSh1yOLhhSjH3SS-37" value="" style="endArrow=classic;html=1;rounded=0;" edge="1" parent="1">
          <mxGeometry width="50" height="50" relative="1" as="geometry">
            <mxPoint x="-100" y="595" as="sourcePoint" />
            <mxPoint x="125" y="595" as="targetPoint" />
          </mxGeometry>
        </mxCell>
        <mxCell id="fJ_9bbSh1yOLhhSjH3SS-38" value="请求分享" style="edgeLabel;html=1;align=center;verticalAlign=middle;resizable=0;points=[];" vertex="1" connectable="0" parent="fJ_9bbSh1yOLhhSjH3SS-37">
          <mxGeometry x="-0.1703" y="2" relative="1" as="geometry">
            <mxPoint as="offset" />
          </mxGeometry>
        </mxCell>
      </root>
    </mxGraphModel>
  </diagram>
</mxfile>
